<svg width="1628" height="982" viewBox="0 0 1628 982" fill="none" xmlns="http://www.w3.org/2000/svg">
<g clip-path="url(#clip0_38_19677)">
<path d="M59.334 663.008V913.961H308.167" stroke="white" stroke-width="6.66667" stroke-miterlimit="10"/>
<path d="M308.167 58.3886H59.334V301.086" stroke="white" stroke-width="6.66667" stroke-miterlimit="10"/>
<path d="M1568.67 663.008V913.961H1319.83" stroke="white" stroke-width="6.66667" stroke-miterlimit="10"/>
<path d="M1319.83 58.3886H1568.67V301.086" stroke="white" stroke-width="6.66667" stroke-miterlimit="10"/>
<path d="M120.248 109.341C120.248 117.908 113.303 124.852 104.735 124.852C96.168 124.852 89.2227 117.908 89.2227 109.341C89.2227 100.773 96.168 93.8275 104.735 93.8275C113.303 93.8275 120.248 100.773 120.248 109.341Z" fill="#EE2825"/>
<path d="M519.508 554.357V651.109H615.444" stroke="white" stroke-width="6.66667" stroke-miterlimit="10"/>
<path d="M615.444 321.251H519.508V414.82" stroke="white" stroke-width="6.66667" stroke-miterlimit="10"/>
<path d="M1101.42 554.357V651.109H1005.48" stroke="white" stroke-width="6.66667" stroke-miterlimit="10"/>
<path d="M1005.48 321.251H1101.42V414.82" stroke="white" stroke-width="6.66667" stroke-miterlimit="10"/>
<path d="M809.137 462.314V506.211" stroke="white" stroke-width="6.66667" stroke-miterlimit="10"/>
<path d="M831.085 484.266H787.188" stroke="white" stroke-width="6.66667" stroke-miterlimit="10"/>
<path d="M1530.08 112.617H1480.57C1474.81 112.617 1470.13 107.947 1470.13 102.184V94.4199C1470.13 88.6572 1474.81 83.9865 1480.57 83.9865H1530.08C1535.84 83.9865 1540.52 88.6572 1540.52 94.4199V102.184C1540.52 107.945 1535.84 112.617 1530.08 112.617Z" stroke="white" stroke-width="2.66667" stroke-miterlimit="10"/>
<path d="M1530.08 112.617H1480.57C1474.81 112.617 1470.13 107.947 1470.13 102.184V94.4199C1470.13 88.6572 1474.81 83.9865 1480.57 83.9865H1530.08C1535.84 83.9865 1540.52 88.6572 1540.52 94.4199V102.184C1540.52 107.945 1535.84 112.617 1530.08 112.617Z" stroke="white" stroke-width="2.66667" stroke-miterlimit="10"/>
<path d="M1469.27 106.688H1466.76C1464.56 106.688 1462.77 104.901 1462.77 102.698V93.8941C1462.77 91.6915 1464.56 89.9061 1466.76 89.9061H1469.27" stroke="white" stroke-width="2.66667" stroke-miterlimit="10"/>
<path d="M1534.23 86.39H1484.87L1494.76 110.141H1534.23C1536.63 110.141 1538.57 108.194 1538.57 105.793V90.7393C1538.57 88.3379 1536.63 86.39 1534.23 86.39Z" fill="#7ECB29"/>
<path d="M1413.03 103.688L1419.3 91.2968V91.1935H1412V88.5826H1422.6V91.2304L1416.33 103.688H1413.03ZM1430.1 103.894C1429.06 103.894 1428.13 103.702 1427.32 103.319C1426.5 102.935 1425.86 102.407 1425.38 101.733C1424.91 101.059 1424.66 100.287 1424.64 99.4171H1427.74C1427.77 100.002 1428.02 100.477 1428.47 100.841C1428.93 101.204 1429.47 101.386 1430.1 101.386C1430.6 101.386 1431.05 101.276 1431.43 101.054C1431.82 100.828 1432.12 100.516 1432.34 100.118C1432.56 99.7146 1432.67 99.2524 1432.67 98.7312C1432.67 98.2002 1432.56 97.7331 1432.33 97.3299C1432.11 96.9267 1431.8 96.612 1431.41 96.3858C1431.02 96.1596 1430.57 96.0441 1430.06 96.0392C1429.62 96.0392 1429.19 96.1301 1428.77 96.3121C1428.36 96.494 1428.03 96.7423 1427.8 97.057L1424.96 96.5481L1425.68 88.5826H1434.91V91.1935H1428.31L1427.92 94.9771H1428.01C1428.27 94.6034 1428.67 94.2937 1429.21 94.0478C1429.75 93.802 1430.35 93.679 1431.01 93.679C1431.92 93.679 1432.73 93.8929 1433.44 94.3207C1434.16 94.7485 1434.72 95.3361 1435.13 96.0834C1435.55 96.8259 1435.75 97.6814 1435.75 98.6501C1435.75 99.6679 1435.51 100.573 1435.04 101.364C1434.57 102.151 1433.9 102.77 1433.05 103.223C1432.21 103.67 1431.22 103.894 1430.1 103.894ZM1446.24 100.855V100.059C1446.24 99.454 1446.37 98.8984 1446.62 98.3919C1446.88 97.8806 1447.26 97.4725 1447.75 97.1676C1448.25 96.8579 1448.85 96.703 1449.57 96.703C1450.29 96.703 1450.9 96.8554 1451.39 97.1602C1451.89 97.4651 1452.26 97.8732 1452.51 98.3846C1452.77 98.891 1452.89 99.4491 1452.89 100.059V100.855C1452.89 101.46 1452.77 102.018 1452.51 102.53C1452.25 103.036 1451.88 103.442 1451.38 103.747C1450.88 104.056 1450.28 104.211 1449.57 104.211C1448.84 104.211 1448.24 104.056 1447.75 103.747C1447.25 103.442 1446.88 103.036 1446.62 102.53C1446.37 102.018 1446.24 101.46 1446.24 100.855ZM1448.39 100.059V100.855C1448.39 101.204 1448.47 101.534 1448.64 101.844C1448.81 102.153 1449.12 102.308 1449.57 102.308C1450.01 102.308 1450.32 102.156 1450.48 101.851C1450.65 101.546 1450.73 101.214 1450.73 100.855V100.059C1450.73 99.6999 1450.65 99.3655 1450.5 99.0557C1450.34 98.746 1450.03 98.5911 1449.57 98.5911C1449.12 98.5911 1448.82 98.746 1448.65 99.0557C1448.47 99.3655 1448.39 99.6999 1448.39 100.059ZM1438.49 92.2113V91.4148C1438.49 90.8051 1438.62 90.247 1438.88 89.7406C1439.14 89.2292 1439.52 88.8211 1440.01 88.5163C1440.51 88.2114 1441.1 88.059 1441.81 88.059C1442.54 88.059 1443.15 88.2114 1443.64 88.5163C1444.13 88.8211 1444.5 89.2292 1444.76 89.7406C1445.01 90.247 1445.14 90.8051 1445.14 91.4148V92.2113C1445.14 92.821 1445.01 93.3791 1444.75 93.8856C1444.5 94.392 1444.12 94.7977 1443.62 95.1025C1443.13 95.4024 1442.53 95.5524 1441.81 95.5524C1441.09 95.5524 1440.48 95.4 1439.99 95.0951C1439.49 94.7854 1439.12 94.3797 1438.87 93.8782C1438.61 93.3717 1438.49 92.8161 1438.49 92.2113ZM1440.65 91.4148V92.2113C1440.65 92.5703 1440.73 92.9022 1440.9 93.207C1441.07 93.5119 1441.38 93.6643 1441.81 93.6643C1442.26 93.6643 1442.57 93.5119 1442.73 93.207C1442.9 92.9022 1442.98 92.5703 1442.98 92.2113V91.4148C1442.98 91.0559 1442.9 90.7215 1442.74 90.4117C1442.59 90.102 1442.28 89.9471 1441.81 89.9471C1441.37 89.9471 1441.07 90.1044 1440.9 90.4191C1440.73 90.7338 1440.65 91.0657 1440.65 91.4148ZM1439.46 103.688L1449.85 88.5826H1451.78L1441.39 103.688H1439.46Z" fill="white"/>
<path d="M1484.05 122.675V132.75H1481.92V124.697H1481.86L1479.56 126.143V124.254L1482.05 122.675H1484.05ZM1486.51 132.75V122.675H1488.64V126.832H1492.96V122.675H1495.09V132.75H1492.96V128.588H1488.64V132.75H1486.51ZM1499.99 132.75V131.215L1503.58 127.895C1503.88 127.599 1504.14 127.334 1504.34 127.098C1504.55 126.861 1504.71 126.63 1504.82 126.404C1504.93 126.174 1504.98 125.927 1504.98 125.661C1504.98 125.366 1504.92 125.112 1504.78 124.899C1504.65 124.682 1504.46 124.517 1504.23 124.402C1504 124.284 1503.73 124.225 1503.44 124.225C1503.13 124.225 1502.86 124.287 1502.63 124.412C1502.4 124.536 1502.22 124.715 1502.1 124.948C1501.98 125.181 1501.91 125.458 1501.91 125.779H1499.89C1499.89 125.12 1500.04 124.548 1500.34 124.062C1500.64 123.577 1501.06 123.201 1501.59 122.936C1502.13 122.67 1502.75 122.537 1503.45 122.537C1504.17 122.537 1504.8 122.665 1505.34 122.921C1505.88 123.174 1506.29 123.524 1506.59 123.974C1506.89 124.423 1507.04 124.938 1507.04 125.518C1507.04 125.899 1506.96 126.274 1506.81 126.645C1506.67 127.016 1506.4 127.427 1506.02 127.88C1505.64 128.329 1505.1 128.869 1504.41 129.498L1502.94 130.94V131.009H1507.17V132.75H1499.99ZM1512.4 132.888C1511.7 132.888 1511.08 132.76 1510.54 132.504C1509.99 132.248 1509.56 131.896 1509.25 131.446C1508.93 130.997 1508.76 130.482 1508.75 129.902H1510.82C1510.84 130.292 1511 130.608 1511.31 130.851C1511.61 131.094 1511.98 131.215 1512.4 131.215C1512.73 131.215 1513.02 131.141 1513.28 130.994C1513.54 130.843 1513.74 130.635 1513.89 130.369C1514.03 130.1 1514.11 129.792 1514.11 129.444C1514.11 129.09 1514.03 128.778 1513.88 128.509C1513.73 128.241 1513.53 128.031 1513.27 127.88C1513 127.729 1512.7 127.652 1512.37 127.649C1512.07 127.649 1511.78 127.709 1511.5 127.831C1511.23 127.952 1511.01 128.118 1510.86 128.327L1508.97 127.988L1509.44 122.675H1515.6V124.417H1511.2L1510.94 126.94H1511C1511.18 126.691 1511.44 126.484 1511.8 126.32C1512.16 126.156 1512.56 126.074 1513 126.074C1513.61 126.074 1514.15 126.217 1514.62 126.502C1515.1 126.788 1515.47 127.18 1515.75 127.678C1516.03 128.173 1516.16 128.744 1516.16 129.39C1516.16 130.069 1516 130.672 1515.69 131.2C1515.37 131.725 1514.93 132.138 1514.36 132.44C1513.8 132.739 1513.14 132.888 1512.4 132.888ZM1517.7 122.675H1520.33L1523.1 129.444H1523.22L1526 122.675H1528.62V132.75H1526.56V126.192H1526.47L1523.87 132.701H1522.46L1519.85 126.168H1519.77V132.75H1517.7V122.675Z" fill="white"/>
<path d="M1386.59 853.673H1392.7L1399.16 869.43H1399.43L1405.89 853.673H1412.01V877.125H1407.2V861.861H1407L1400.93 877.01H1397.66L1391.59 861.803H1391.39V877.125H1386.59V853.673ZM1416.09 877.125V853.673H1431.89V857.761H1421.05V863.349H1431.08V867.437H1421.05V873.037H1431.94V877.125H1416.09ZM1455.45 853.673V877.125H1451.17L1440.97 862.365H1440.79V877.125H1435.84V853.673H1440.19L1450.31 868.422H1450.52V853.673H1455.45ZM1474.03 853.673H1478.99V868.903C1478.99 870.613 1478.58 872.109 1477.77 873.392C1476.96 874.674 1475.82 875.675 1474.37 876.392C1472.91 877.102 1471.21 877.457 1469.27 877.457C1467.32 877.457 1465.62 877.102 1464.16 876.392C1462.71 875.675 1461.57 874.674 1460.76 873.392C1459.95 872.109 1459.55 870.613 1459.55 868.903V853.673H1464.51V868.479C1464.51 869.373 1464.7 870.167 1465.09 870.861C1465.49 871.556 1466.05 872.102 1466.76 872.499C1467.48 872.896 1468.32 873.094 1469.27 873.094C1470.23 873.094 1471.07 872.896 1471.78 872.499C1472.5 872.102 1473.05 871.556 1473.44 870.861C1473.84 870.167 1474.03 869.373 1474.03 868.479V853.673Z" fill="white"/>
<path d="M1489.51 857.172H1499.53" stroke="white" stroke-width="2.66667" stroke-miterlimit="10"/>
<path d="M1489.51 866.602H1499.53" stroke="white" stroke-width="2.66667" stroke-miterlimit="10"/>
<path d="M1489.51 876.039H1499.53" stroke="white" stroke-width="2.66667" stroke-miterlimit="10"/>
<path d="M1508.67 857.172H1539.99" stroke="white" stroke-width="2.66667" stroke-miterlimit="10"/>
<path d="M1508.67 866.602H1539.99" stroke="white" stroke-width="2.66667" stroke-miterlimit="10"/>
<path d="M1508.67 876.039H1539.99" stroke="white" stroke-width="2.66667" stroke-miterlimit="10"/>
<path d="M680.559 888.181V912.344H675.45V893.03H675.308L669.775 896.499V891.968L675.757 888.181H680.559ZM695.044 887.85C696.287 887.85 697.482 888.059 698.631 888.476C699.787 888.893 700.817 889.557 701.722 890.47C702.634 891.382 703.354 892.593 703.881 894.104C704.416 895.606 704.687 897.45 704.695 899.637C704.695 901.69 704.463 903.523 703.999 905.135C703.543 906.74 702.886 908.104 702.029 909.229C701.171 910.354 700.137 911.211 698.926 911.801C697.715 912.383 696.362 912.674 694.867 912.674C693.255 912.674 691.831 912.363 690.596 911.742C689.361 911.113 688.366 910.259 687.611 909.182C686.864 908.096 686.412 906.877 686.254 905.524H691.292C691.489 906.405 691.902 907.09 692.531 907.577C693.16 908.057 693.939 908.297 694.867 908.297C696.44 908.297 697.636 907.613 698.454 906.244C699.272 904.868 699.685 902.984 699.693 900.593H699.528C699.166 901.301 698.678 901.91 698.065 902.421C697.451 902.925 696.747 903.314 695.953 903.589C695.166 903.865 694.328 904.002 693.44 904.002C692.016 904.002 690.746 903.668 689.629 902.999C688.512 902.331 687.631 901.411 686.986 900.239C686.341 899.067 686.018 897.73 686.018 896.227C686.011 894.607 686.384 893.164 687.139 891.897C687.894 890.631 688.948 889.64 690.301 888.924C691.662 888.2 693.243 887.843 695.044 887.85ZM695.08 891.862C694.285 891.862 693.577 892.051 692.956 892.428C692.342 892.806 691.855 893.313 691.493 893.95C691.139 894.587 690.966 895.299 690.974 896.086C690.974 896.88 691.147 897.596 691.493 898.233C691.847 898.862 692.327 899.366 692.932 899.743C693.546 900.113 694.246 900.298 695.032 900.298C695.622 900.298 696.169 900.188 696.672 899.967C697.176 899.747 697.612 899.444 697.982 899.059C698.359 898.666 698.654 898.213 698.867 897.702C699.079 897.191 699.185 896.648 699.185 896.074C699.178 895.311 698.997 894.611 698.643 893.974C698.289 893.337 697.801 892.825 697.18 892.44C696.558 892.055 695.858 891.862 695.08 891.862ZM708.235 912.344V908.663L716.836 900.699C717.567 899.991 718.181 899.354 718.676 898.787C719.18 898.221 719.561 897.667 719.821 897.124C720.08 896.573 720.21 895.979 720.21 895.342C720.21 894.634 720.049 894.025 719.726 893.514C719.404 892.994 718.963 892.597 718.405 892.322C717.846 892.039 717.213 891.897 716.505 891.897C715.766 891.897 715.121 892.047 714.57 892.346C714.02 892.644 713.595 893.073 713.296 893.632C712.997 894.19 712.848 894.855 712.848 895.625H707.999C707.999 894.045 708.357 892.672 709.072 891.508C709.788 890.344 710.791 889.443 712.081 888.806C713.371 888.169 714.858 887.85 716.541 887.85C718.271 887.85 719.777 888.157 721.06 888.771C722.349 889.376 723.352 890.218 724.068 891.296C724.784 892.373 725.142 893.608 725.142 895C725.142 895.913 724.961 896.813 724.599 897.702C724.245 898.591 723.612 899.578 722.699 900.663C721.787 901.741 720.501 903.035 718.841 904.545L715.314 908.002V908.167H725.46V912.344H708.235ZM738.636 912.875C736.607 912.867 734.861 912.367 733.398 911.376C731.942 910.385 730.822 908.95 730.035 907.07C729.256 905.19 728.871 902.929 728.879 900.286C728.879 897.651 729.268 895.405 730.047 893.549C730.833 891.693 731.954 890.281 733.409 889.313C734.872 888.338 736.615 887.85 738.636 887.85C740.658 887.85 742.396 888.338 743.851 889.313C745.314 890.289 746.439 891.705 747.225 893.561C748.012 895.409 748.401 897.651 748.393 900.286C748.393 902.937 748 905.202 747.213 907.082C746.435 908.962 745.318 910.397 743.863 911.388C742.408 912.379 740.665 912.875 738.636 912.875ZM738.636 908.639C740.02 908.639 741.126 907.943 741.951 906.551C742.777 905.159 743.186 903.07 743.178 900.286C743.178 898.453 742.99 896.927 742.612 895.708C742.242 894.489 741.715 893.573 741.031 892.959C740.355 892.346 739.556 892.039 738.636 892.039C737.26 892.039 736.158 892.727 735.333 894.104C734.507 895.48 734.09 897.541 734.082 900.286C734.082 902.142 734.267 903.692 734.636 904.934C735.014 906.169 735.545 907.097 736.229 907.719C736.914 908.332 737.716 908.639 738.636 908.639ZM756.968 888.181L761.84 896.416H762.029L766.926 888.181H772.695L765.321 900.262L772.86 912.344H766.985L762.029 904.097H761.84L756.885 912.344H751.033L758.596 900.262L751.175 888.181H756.968ZM786.298 888.181V912.344H781.19V893.03H781.048L775.515 896.499V891.968L781.497 888.181H786.298ZM801.515 912.875C799.486 912.867 797.74 912.367 796.277 911.376C794.822 910.385 793.701 908.95 792.914 907.07C792.136 905.19 791.75 902.929 791.758 900.286C791.758 897.651 792.147 895.405 792.926 893.549C793.713 891.693 794.834 890.281 796.289 889.313C797.752 888.338 799.494 887.85 801.515 887.85C803.537 887.85 805.275 888.338 806.73 889.313C808.193 890.289 809.318 891.705 810.105 893.561C810.891 895.409 811.28 897.651 811.273 900.286C811.273 902.937 810.879 905.202 810.093 907.082C809.314 908.962 808.197 910.397 806.742 911.388C805.287 912.379 803.545 912.875 801.515 912.875ZM801.515 908.639C802.9 908.639 804.005 907.943 804.831 906.551C805.657 905.159 806.066 903.07 806.058 900.286C806.058 898.453 805.869 896.927 805.491 895.708C805.122 894.489 804.595 893.573 803.91 892.959C803.234 892.346 802.436 892.039 801.515 892.039C800.139 892.039 799.038 892.727 798.212 894.104C797.386 895.48 796.969 897.541 796.961 900.286C796.961 902.142 797.146 903.692 797.516 904.934C797.893 906.169 798.424 907.097 799.108 907.719C799.793 908.332 800.595 908.639 801.515 908.639ZM823.929 912.674C822.112 912.674 820.496 912.379 819.08 911.789C817.672 911.191 816.567 910.377 815.765 909.347C814.963 908.317 814.561 907.149 814.561 905.843C814.561 904.836 814.789 903.912 815.246 903.07C815.71 902.221 816.339 901.517 817.133 900.958C817.928 900.392 818.817 900.03 819.8 899.873V899.708C818.51 899.448 817.464 898.823 816.661 897.832C815.859 896.833 815.458 895.673 815.458 894.351C815.458 893.101 815.824 891.988 816.555 891.012C817.287 890.029 818.29 889.258 819.564 888.7C820.846 888.134 822.301 887.85 823.929 887.85C825.557 887.85 827.009 888.134 828.283 888.7C829.565 889.266 830.572 890.041 831.303 891.024C832.035 891.999 832.404 893.109 832.412 894.351C832.404 895.681 831.995 896.841 831.185 897.832C830.375 898.823 829.337 899.448 828.07 899.708V899.873C829.038 900.03 829.915 900.392 830.701 900.958C831.496 901.517 832.125 902.221 832.589 903.07C833.061 903.912 833.301 904.836 833.309 905.843C833.301 907.149 832.896 908.317 832.094 909.347C831.291 910.377 830.182 911.191 828.767 911.789C827.359 912.379 825.746 912.674 823.929 912.674ZM823.929 908.922C824.739 908.922 825.447 908.777 826.053 908.486C826.659 908.187 827.131 907.778 827.469 907.259C827.815 906.732 827.988 906.126 827.988 905.442C827.988 904.742 827.811 904.124 827.457 903.589C827.103 903.047 826.623 902.622 826.018 902.315C825.412 902.001 824.716 901.843 823.929 901.843C823.151 901.843 822.454 902.001 821.841 902.315C821.227 902.622 820.744 903.047 820.39 903.589C820.044 904.124 819.871 904.742 819.871 905.442C819.871 906.126 820.04 906.732 820.378 907.259C820.716 907.778 821.192 908.187 821.806 908.486C822.419 908.777 823.127 908.922 823.929 908.922ZM823.929 898.127C824.606 898.127 825.207 897.989 825.734 897.714C826.261 897.439 826.674 897.057 826.973 896.569C827.272 896.082 827.422 895.519 827.422 894.882C827.422 894.253 827.272 893.702 826.973 893.23C826.674 892.751 826.265 892.377 825.746 892.11C825.227 891.834 824.621 891.697 823.929 891.697C823.245 891.697 822.639 891.834 822.112 892.11C821.585 892.377 821.172 892.751 820.873 893.23C820.582 893.702 820.437 894.253 820.437 894.882C820.437 895.519 820.586 896.082 820.885 896.569C821.184 897.057 821.597 897.439 822.124 897.714C822.651 897.989 823.253 898.127 823.929 898.127ZM846.355 912.875C844.326 912.867 842.579 912.367 841.116 911.376C839.661 910.385 838.541 908.95 837.754 907.07C836.975 905.19 836.59 902.929 836.598 900.286C836.598 897.651 836.987 895.405 837.766 893.549C838.552 891.693 839.673 890.281 841.128 889.313C842.591 888.338 844.334 887.85 846.355 887.85C848.376 887.85 850.115 888.338 851.57 889.313C853.033 890.289 854.158 891.705 854.944 893.561C855.731 895.409 856.12 897.651 856.112 900.286C856.112 902.937 855.719 905.202 854.932 907.082C854.154 908.962 853.037 910.397 851.582 911.388C850.126 912.379 848.384 912.875 846.355 912.875ZM846.355 908.639C847.739 908.639 848.844 907.943 849.67 906.551C850.496 905.159 850.905 903.07 850.897 900.286C850.897 898.453 850.709 896.927 850.331 895.708C849.961 894.489 849.434 893.573 848.75 892.959C848.074 892.346 847.275 892.039 846.355 892.039C844.978 892.039 843.877 892.727 843.051 894.104C842.226 895.48 841.809 897.541 841.801 900.286C841.801 902.142 841.986 903.692 842.355 904.934C842.733 906.169 843.264 907.097 843.948 907.719C844.632 908.332 845.435 908.639 846.355 908.639ZM867.444 912.344V908.663L876.045 900.699C876.777 899.991 877.39 899.354 877.886 898.787C878.389 898.221 878.771 897.667 879.03 897.124C879.29 896.573 879.42 895.979 879.42 895.342C879.42 894.634 879.259 894.025 878.936 893.514C878.614 892.994 878.173 892.597 877.615 892.322C877.056 892.039 876.423 891.897 875.715 891.897C874.976 891.897 874.331 892.047 873.78 892.346C873.23 892.644 872.805 893.073 872.506 893.632C872.207 894.19 872.058 894.855 872.058 895.625H867.209C867.209 894.045 867.566 892.672 868.282 891.508C868.998 890.344 870.001 889.443 871.291 888.806C872.581 888.169 874.067 887.85 875.751 887.85C877.481 887.85 878.987 888.157 880.269 888.771C881.559 889.376 882.562 890.218 883.278 891.296C883.994 892.373 884.352 893.608 884.352 895C884.352 895.913 884.171 896.813 883.809 897.702C883.455 898.591 882.822 899.578 881.909 900.663C880.997 901.741 879.711 903.035 878.051 904.545L874.523 908.002V908.167H884.67V912.344H867.444ZM897.197 912.674C895.529 912.674 894.043 912.367 892.737 911.754C891.439 911.14 890.409 910.295 889.646 909.217C888.883 908.14 888.486 906.905 888.454 905.513H893.41C893.465 906.449 893.858 907.208 894.59 907.79C895.321 908.372 896.19 908.663 897.197 908.663C897.999 908.663 898.707 908.486 899.321 908.132C899.942 907.77 900.426 907.27 900.772 906.633C901.126 905.988 901.303 905.249 901.303 904.415C901.303 903.566 901.122 902.819 900.76 902.174C900.406 901.529 899.915 901.025 899.285 900.663C898.656 900.302 897.936 900.117 897.126 900.109C896.418 900.109 895.73 900.254 895.061 900.545C894.401 900.836 893.886 901.234 893.516 901.737L888.974 900.923L890.118 888.181H904.889V892.357H894.33L893.705 898.41H893.846C894.271 897.812 894.912 897.317 895.769 896.923C896.627 896.53 897.586 896.333 898.648 896.333C900.103 896.333 901.401 896.676 902.542 897.36C903.682 898.044 904.583 898.984 905.243 900.18C905.904 901.367 906.231 902.736 906.223 904.285C906.231 905.914 905.853 907.361 905.09 908.627C904.335 909.886 903.277 910.877 901.916 911.6C900.563 912.316 898.99 912.674 897.197 912.674ZM917.617 912.344V888.181H933.615V892.393H922.726V898.15H932.554V902.362H922.726V912.344H917.617ZM937.052 912.344V888.181H946.585C948.418 888.181 949.979 888.531 951.269 889.231C952.559 889.923 953.542 890.886 954.218 892.121C954.903 893.348 955.245 894.764 955.245 896.369C955.245 897.973 954.899 899.389 954.207 900.616C953.514 901.843 952.512 902.799 951.198 903.483C949.892 904.167 948.311 904.51 946.455 904.51H940.379V900.416H945.629C946.612 900.416 947.423 900.247 948.06 899.908C948.705 899.562 949.184 899.086 949.499 898.481C949.822 897.867 949.983 897.163 949.983 896.369C949.983 895.567 949.822 894.866 949.499 894.269C949.184 893.663 948.705 893.195 948.06 892.865C947.415 892.526 946.597 892.357 945.606 892.357H942.16V912.344H937.052ZM971.671 895.13C971.577 894.178 971.172 893.439 970.456 892.912C969.74 892.385 968.769 892.121 967.542 892.121C966.708 892.121 966.004 892.239 965.43 892.475C964.856 892.703 964.415 893.022 964.108 893.431C963.809 893.84 963.66 894.304 963.66 894.823C963.644 895.256 963.735 895.633 963.931 895.956C964.136 896.278 964.415 896.558 964.769 896.794C965.123 897.022 965.532 897.222 965.996 897.395C966.46 897.56 966.956 897.702 967.483 897.82L969.654 898.339C970.708 898.575 971.675 898.89 972.556 899.283C973.437 899.676 974.2 900.16 974.845 900.734C975.49 901.308 975.989 901.985 976.343 902.763C976.705 903.542 976.89 904.435 976.898 905.442C976.89 906.92 976.512 908.203 975.765 909.288C975.026 910.366 973.956 911.203 972.556 911.801C971.164 912.391 969.484 912.686 967.518 912.686C965.567 912.686 963.868 912.387 962.421 911.789C960.982 911.191 959.857 910.307 959.047 909.135C958.245 907.955 957.824 906.496 957.784 904.757H962.728C962.783 905.568 963.015 906.244 963.424 906.787C963.841 907.322 964.395 907.727 965.088 908.002C965.788 908.269 966.578 908.403 967.459 908.403C968.324 908.403 969.075 908.277 969.713 908.026C970.357 907.774 970.857 907.424 971.211 906.976C971.565 906.527 971.742 906.012 971.742 905.43C971.742 904.887 971.581 904.431 971.258 904.061C970.943 903.692 970.479 903.377 969.866 903.117C969.26 902.858 968.517 902.622 967.636 902.41L965.005 901.749C962.968 901.253 961.359 900.479 960.179 899.425C959 898.371 958.414 896.951 958.422 895.165C958.414 893.702 958.803 892.424 959.59 891.331C960.384 890.238 961.473 889.384 962.858 888.771C964.242 888.157 965.815 887.85 967.577 887.85C969.37 887.85 970.936 888.157 972.273 888.771C973.618 889.384 974.664 890.238 975.411 891.331C976.158 892.424 976.544 893.691 976.567 895.13H971.671Z" fill="white"/>
<path d="M726.595 90.0778C724.565 90.0699 722.819 89.5705 721.356 88.5794C719.901 87.5884 718.78 86.1529 717.994 84.273C717.215 82.3931 716.83 80.1318 716.837 77.489C716.837 74.854 717.227 72.6084 718.006 70.7521C718.792 68.8958 719.913 67.484 721.368 66.5165C722.831 65.5412 724.573 65.0535 726.595 65.0535C728.616 65.0535 730.354 65.5412 731.81 66.5165C733.273 67.4918 734.397 68.9076 735.184 70.7639C735.97 72.6123 736.36 74.854 736.352 77.489C736.352 80.1397 735.959 82.4049 735.172 84.2848C734.393 86.1647 733.276 87.6001 731.821 88.5912C730.366 89.5823 728.624 90.0778 726.595 90.0778ZM726.595 85.8422C727.979 85.8422 729.084 85.1461 729.91 83.7539C730.736 82.3617 731.145 80.2734 731.137 77.489C731.137 75.6563 730.948 74.1304 730.571 72.9112C730.201 71.692 729.674 70.7757 728.99 70.1622C728.313 69.5487 727.515 69.2419 726.595 69.2419C725.218 69.2419 724.117 69.9302 723.291 71.3066C722.465 72.6831 722.048 74.7439 722.041 77.489C722.041 79.3452 722.225 80.8948 722.595 82.1375C722.973 83.3724 723.504 84.3005 724.188 84.9219C724.872 85.5354 725.674 85.8422 726.595 85.8422ZM749.469 90.0778C747.439 90.0699 745.693 89.5705 744.23 88.5794C742.775 87.5884 741.654 86.1529 740.868 84.273C740.089 82.3931 739.704 80.1318 739.712 77.489C739.712 74.854 740.101 72.6084 740.88 70.7521C741.666 68.8958 742.787 67.484 744.242 66.5165C745.705 65.5412 747.447 65.0535 749.469 65.0535C751.49 65.0535 753.228 65.5412 754.684 66.5165C756.147 67.4918 757.271 68.9076 758.058 70.7639C758.844 72.6123 759.234 74.854 759.226 77.489C759.226 80.1397 758.833 82.4049 758.046 84.2848C757.267 86.1647 756.151 87.6001 754.695 88.5912C753.24 89.5823 751.498 90.0778 749.469 90.0778ZM749.469 85.8422C750.853 85.8422 751.958 85.1461 752.784 83.7539C753.61 82.3617 754.019 80.2734 754.011 77.489C754.011 75.6563 753.822 74.1304 753.445 72.9112C753.075 71.692 752.548 70.7757 751.864 70.1622C751.187 69.5487 750.389 69.2419 749.469 69.2419C748.092 69.2419 746.991 69.9302 746.165 71.3066C745.339 72.6831 744.922 74.7439 744.915 77.489C744.915 79.3452 745.099 80.8948 745.469 82.1375C745.847 83.3724 746.378 84.3005 747.062 84.9219C747.746 85.5354 748.548 85.8422 749.469 85.8422ZM765.854 86.7389C765.075 86.7389 764.406 86.4636 763.848 85.913C763.297 85.3624 763.022 84.6938 763.022 83.9073C763.022 83.1364 763.297 82.4757 763.848 81.9251C764.406 81.3746 765.075 81.0993 765.854 81.0993C766.609 81.0993 767.269 81.3746 767.836 81.9251C768.402 82.4757 768.685 83.1364 768.685 83.9073C768.685 84.4264 768.552 84.9023 768.284 85.3349C768.025 85.7596 767.682 86.1018 767.258 86.3613C766.833 86.613 766.365 86.7389 765.854 86.7389ZM765.854 74.8815C765.075 74.8815 764.406 74.6062 763.848 74.0557C763.297 73.5051 763.022 72.8365 763.022 72.0499C763.022 71.2791 763.297 70.6223 763.848 70.0796C764.406 69.529 765.075 69.2537 765.854 69.2537C766.609 69.2537 767.269 69.529 767.836 70.0796C768.402 70.6223 768.685 71.2791 768.685 72.0499C768.685 72.5769 768.552 73.0567 768.284 73.4893C768.025 73.9141 767.682 74.2523 767.258 74.504C766.833 74.7557 766.365 74.8815 765.854 74.8815ZM782.239 90.0778C780.209 90.0699 778.463 89.5705 777 88.5794C775.545 87.5884 774.424 86.1529 773.638 84.273C772.859 82.3931 772.474 80.1318 772.481 77.489C772.481 74.854 772.871 72.6084 773.649 70.7521C774.436 68.8958 775.557 67.484 777.012 66.5165C778.475 65.5412 780.217 65.0535 782.239 65.0535C784.26 65.0535 785.998 65.5412 787.454 66.5165C788.916 67.4918 790.041 68.9076 790.828 70.7639C791.614 72.6123 792.004 74.854 791.996 77.489C791.996 80.1397 791.603 82.4049 790.816 84.2848C790.037 86.1647 788.92 87.6001 787.465 88.5912C786.01 89.5823 784.268 90.0778 782.239 90.0778ZM782.239 85.8422C783.623 85.8422 784.728 85.1461 785.554 83.7539C786.38 82.3617 786.789 80.2734 786.781 77.489C786.781 75.6563 786.592 74.1304 786.215 72.9112C785.845 71.692 785.318 70.7757 784.634 70.1622C783.957 69.5487 783.159 69.2419 782.239 69.2419C780.862 69.2419 779.761 69.9302 778.935 71.3066C778.109 72.6831 777.692 74.7439 777.684 77.489C777.684 79.3452 777.869 80.8948 778.239 82.1375C778.617 83.3724 779.147 84.3005 779.832 84.9219C780.516 85.5354 781.318 85.8422 782.239 85.8422ZM805.113 90.0778C803.083 90.0699 801.337 89.5705 799.874 88.5794C798.419 87.5884 797.298 86.1529 796.512 84.273C795.733 82.3931 795.348 80.1318 795.355 77.489C795.355 74.854 795.745 72.6084 796.523 70.7521C797.31 68.8958 798.431 67.484 799.886 66.5165C801.349 65.5412 803.091 65.0535 805.113 65.0535C807.134 65.0535 808.872 65.5412 810.328 66.5165C811.791 67.4918 812.915 68.9076 813.702 70.7639C814.488 72.6123 814.878 74.854 814.87 77.489C814.87 80.1397 814.477 82.4049 813.69 84.2848C812.911 86.1647 811.794 87.6001 810.339 88.5912C808.884 89.5823 807.142 90.0778 805.113 90.0778ZM805.113 85.8422C806.497 85.8422 807.602 85.1461 808.428 83.7539C809.254 82.3617 809.663 80.2734 809.655 77.489C809.655 75.6563 809.466 74.1304 809.089 72.9112C808.719 71.692 808.192 70.7757 807.508 70.1622C806.831 69.5487 806.033 69.2419 805.113 69.2419C803.736 69.2419 802.635 69.9302 801.809 71.3066C800.983 72.6831 800.566 74.7439 800.559 77.489C800.559 79.3452 800.743 80.8948 801.113 82.1375C801.491 83.3724 802.022 84.3005 802.706 84.9219C803.39 85.5354 804.192 85.8422 805.113 85.8422ZM821.498 86.7389C820.719 86.7389 820.05 86.4636 819.492 85.913C818.941 85.3624 818.666 84.6938 818.666 83.9073C818.666 83.1364 818.941 82.4757 819.492 81.9251C820.05 81.3746 820.719 81.0993 821.498 81.0993C822.253 81.0993 822.913 81.3746 823.48 81.9251C824.046 82.4757 824.329 83.1364 824.329 83.9073C824.329 84.4264 824.196 84.9023 823.928 85.3349C823.669 85.7596 823.326 86.1018 822.902 86.3613C822.477 86.613 822.009 86.7389 821.498 86.7389ZM821.498 74.8815C820.719 74.8815 820.05 74.6062 819.492 74.0557C818.941 73.5051 818.666 72.8365 818.666 72.0499C818.666 71.2791 818.941 70.6223 819.492 70.0796C820.05 69.529 820.719 69.2537 821.498 69.2537C822.253 69.2537 822.913 69.529 823.48 70.0796C824.046 70.6223 824.329 71.2791 824.329 72.0499C824.329 72.5769 824.196 73.0567 823.928 73.4893C823.669 73.9141 823.326 74.2523 822.902 74.504C822.477 74.7557 822.009 74.8815 821.498 74.8815ZM828.408 89.5469V85.8658L837.009 77.9019C837.741 77.194 838.355 76.5569 838.85 75.9906C839.353 75.4243 839.735 74.8697 839.994 74.327C840.254 73.7764 840.384 73.1826 840.384 72.5455C840.384 71.8376 840.223 71.228 839.9 70.7167C839.578 70.1976 839.137 69.8004 838.579 69.5251C838.02 69.2419 837.387 69.1003 836.679 69.1003C835.94 69.1003 835.295 69.2498 834.744 69.5487C834.194 69.8476 833.769 70.2762 833.47 70.8347C833.171 71.3932 833.022 72.0578 833.022 72.8286H828.173C828.173 71.2476 828.53 69.8751 829.246 68.711C829.962 67.5469 830.965 66.6463 832.255 66.0092C833.545 65.3721 835.031 65.0535 836.715 65.0535C838.445 65.0535 839.951 65.3603 841.233 65.9738C842.523 66.5794 843.526 67.421 844.242 68.4986C844.958 69.5762 845.316 70.8111 845.316 72.2033C845.316 73.1157 845.135 74.0163 844.773 74.9051C844.419 75.7939 843.786 76.7811 842.873 77.8665C841.961 78.9441 840.675 80.238 839.015 81.7482L835.488 85.2051V85.3703H845.634V89.5469H828.408ZM858.81 90.0778C856.781 90.0699 855.034 89.5705 853.571 88.5794C852.116 87.5884 850.995 86.1529 850.209 84.273C849.43 82.3931 849.045 80.1318 849.053 77.489C849.053 74.854 849.442 72.6084 850.221 70.7521C851.007 68.8958 852.128 67.484 853.583 66.5165C855.046 65.5412 856.788 65.0535 858.81 65.0535C860.831 65.0535 862.57 65.5412 864.025 66.5165C865.488 67.4918 866.613 68.9076 867.399 70.7639C868.186 72.6123 868.575 74.854 868.567 77.489C868.567 80.1397 868.174 82.4049 867.387 84.2848C866.609 86.1647 865.492 87.6001 864.037 88.5912C862.581 89.5823 860.839 90.0778 858.81 90.0778ZM858.81 85.8422C860.194 85.8422 861.299 85.1461 862.125 83.7539C862.951 82.3617 863.36 80.2734 863.352 77.489C863.352 75.6563 863.163 74.1304 862.786 72.9112C862.416 71.692 861.889 70.7757 861.205 70.1622C860.529 69.5487 859.73 69.2419 858.81 69.2419C857.433 69.2419 856.332 69.9302 855.506 71.3066C854.68 72.6831 854.264 74.7439 854.256 77.489C854.256 79.3452 854.441 80.8948 854.81 82.1375C855.188 83.3724 855.719 84.3005 856.403 84.9219C857.087 85.5354 857.89 85.8422 858.81 85.8422ZM875.195 86.7389C874.416 86.7389 873.748 86.4636 873.189 85.913C872.639 85.3624 872.363 84.6938 872.363 83.9073C872.363 83.1364 872.639 82.4757 873.189 81.9251C873.748 81.3746 874.416 81.0993 875.195 81.0993C875.95 81.0993 876.611 81.3746 877.177 81.9251C877.743 82.4757 878.026 83.1364 878.026 83.9073C878.026 84.4264 877.893 84.9023 877.625 85.3349C877.366 85.7596 877.024 86.1018 876.599 86.3613C876.174 86.613 875.706 86.7389 875.195 86.7389ZM875.195 74.8815C874.416 74.8815 873.748 74.6062 873.189 74.0557C872.639 73.5051 872.363 72.8365 872.363 72.0499C872.363 71.2791 872.639 70.6223 873.189 70.0796C873.748 69.529 874.416 69.2537 875.195 69.2537C875.95 69.2537 876.611 69.529 877.177 70.0796C877.743 70.6223 878.026 71.2791 878.026 72.0499C878.026 72.5769 877.893 73.0567 877.625 73.4893C877.366 73.9141 877.024 74.2523 876.599 74.504C876.174 74.7557 875.706 74.8815 875.195 74.8815ZM891.58 90.0778C889.55 90.0699 887.804 89.5705 886.341 88.5794C884.886 87.5884 883.765 86.1529 882.979 84.273C882.2 82.3931 881.815 80.1318 881.823 77.489C881.823 74.854 882.212 72.6084 882.991 70.7521C883.777 68.8958 884.898 67.484 886.353 66.5165C887.816 65.5412 889.558 65.0535 891.58 65.0535C893.601 65.0535 895.34 65.5412 896.795 66.5165C898.258 67.4918 899.382 68.9076 900.169 70.7639C900.956 72.6123 901.345 74.854 901.337 77.489C901.337 80.1397 900.944 82.4049 900.157 84.2848C899.378 86.1647 898.262 87.6001 896.806 88.5912C895.351 89.5823 893.609 90.0778 891.58 90.0778ZM891.58 85.8422C892.964 85.8422 894.069 85.1461 894.895 83.7539C895.721 82.3617 896.13 80.2734 896.122 77.489C896.122 75.6563 895.933 74.1304 895.556 72.9112C895.186 71.692 894.659 70.7757 893.975 70.1622C893.298 69.5487 892.5 69.2419 891.58 69.2419C890.203 69.2419 889.102 69.9302 888.276 71.3066C887.45 72.6831 887.033 74.7439 887.026 77.489C887.026 79.3452 887.21 80.8948 887.58 82.1375C887.958 83.3724 888.489 84.3005 889.173 84.9219C889.857 85.5354 890.66 85.8422 891.58 85.8422ZM913.805 89.8772C912.137 89.8772 910.651 89.5705 909.345 88.957C908.047 88.3434 907.017 87.4979 906.254 86.4203C905.491 85.3427 905.094 84.1078 905.062 82.7156H910.018C910.073 83.6516 910.466 84.4107 911.197 84.9927C911.929 85.5748 912.798 85.8658 913.805 85.8658C914.607 85.8658 915.315 85.6888 915.929 85.3349C916.55 84.9731 917.034 84.4736 917.38 83.8365C917.734 83.1915 917.911 82.4521 917.911 81.6184C917.911 80.7689 917.73 80.0217 917.368 79.3767C917.014 78.7317 916.522 78.2283 915.893 77.8665C915.264 77.5047 914.544 77.3199 913.734 77.312C913.026 77.312 912.338 77.4575 911.669 77.7485C911.009 78.0396 910.494 78.4368 910.124 78.9402L905.581 78.1261L906.726 65.3839H921.497V69.5605H910.938L910.313 75.613H910.454C910.879 75.0152 911.52 74.5197 912.377 74.1264C913.235 73.7332 914.194 73.5365 915.256 73.5365C916.711 73.5365 918.009 73.8787 919.15 74.563C920.29 75.2473 921.191 76.1872 921.851 77.3828C922.512 78.5705 922.839 79.9391 922.831 81.4886C922.839 83.1168 922.461 84.564 921.698 85.8304C920.943 87.0889 919.885 88.0799 918.524 88.8036C917.171 89.5193 915.598 89.8772 913.805 89.8772Z" fill="white"/>
</g>
<defs>
<clipPath id="clip0_38_19677">
<rect width="1628" height="981.333" fill="white"/>
</clipPath>
</defs>
</svg>
